{"title":"Tu Hi Junoon -  Full Video Song HD 720p - DHOOM 3 - Aamir Khan,","uid":9463043,"size":113436455,"categoryP":"video","categoryS":"music_videos","magnet":"?xt=urn:btih:81fbd839a711b369efc4a6780747947d4e3e199a&amp;dn=Tu+Hi+Junoon+-++Full+Video+Song+HD+720p+-+DHOOM+3+-+Aamir+Khan%2C+&amp;tr=udp%3A%2F%2Ftracker.openbittorrent.com%3A80&amp;tr=udp%3A%2F%2Fopen.demonii.com%3A1337&amp;tr=udp%3A%2F%2Ftracker.coppersurfer.tk%3A6969&amp;tr=udp%3A%2F%2Fexodus.desync.com%3A6969","seeders":1,"leechers":0,"uploader":"ashish.p","files":1,"time":1389386896,"description":"General\n\nComplete name : Tu Hi Junoon - Full Video Song HD 720p - DHOOM 3 - Aamir Khan, Katrina Kaif -AshishRocks- { DAKU RG }\nFormat : MPEG-4\nFormat profile : Base Media / Version 2\nCodec ID : mp42\nFile size :\t108 MiB\nDuration :\t 4mn 56s\nOverall bit rate mode : Variable\nOverall bit rate : 3 060 Kbps\nEncoded date : UTC 2014-01-09 17:02:45\nTagged date :\tUTC 2014-01-09 17:02:45\n\nVideo\n\nID :\t1\nFormat :\tAVC\nFormat/Info : Advanced Video Codec\nFormat profile : &lt;a class=&quot;__cf_email__&quot; href=&quot;/cdn-cgi/l/email-protection&quot; data-cfemail=&quot;f0b8999798b0bcc3dec1&quot;&gt;[email&amp;#160;protected]&lt;/a&gt;&lt;script cf-hash='f9e31' type=&quot;text/javascript&quot;&gt;\n/* &lt;![CDATA[ */!function(){try{var t=&quot;currentScript&quot;in document?document.currentScript:function(){for(var t=document.getElementsByTagName(&quot;script&quot;),e=t.length;e--;)if(t[e].getAttribute(&quot;cf-hash&quot;))return t[e]}();if(t&amp;&amp;t.previousSibling){var e,r,n,i,c=t.previousSibling,a=c.getAttribute(&quot;data-cfemail&quot;);if(a){for(e=&quot;&quot;,r=parseInt(a.substr(0,2),16),n=2;a.length-n;n+=2)i=parseInt(a.substr(n,2),16)^r,e+=String.fromCharCode(i);e=document.createTextNode(e),c.parentNode.replaceChild(e,c)}}}catch(u){}}();/* ]]&gt; */&lt;/script&gt;\nFormat settings, CABAC :\tYes\nFormat settings, ReFrames : 1 frame\nCodec ID : avc1\nCodec ID/Info : Advanced Video Coding\nDuration :\t4mn 56s\nBit rate : 2 866 Kbps\nMaximum bit rate : 7 075 Kbps\nWidth : 1 280 pixels\nHeight : 720 pixels\nDisplay aspect ratio : 16:9\nFrame rate mode : Constant\nFrame rate : 24.000 fps\nColor space : YUV\nChroma subsampling : 4:2:0\nBit depth : 8 bits\nScan type : Progressive\nBits/(Pixel*Frame) :\t0.130\nStream size : 101 MiB (94%)\nTagged date :\tUTC 2014-01-09 17:02:51\n\nAudio\n\nID :\t2\nFormat : AAC\nFormat/Info : Advanced Audio Codec\nFormat profile : LC\nCodec ID : 40\nDuration :\t 4mn 56s\nBit rate mode :\tVariable\nBit rate : 192 Kbps\nMaximum bit rate : 204 Kbps\nChannel(s) : 2 channels\nChannel positions :\tFront: L R\nSampling rate : 44.1 KHz\nCompression mode : Lossy\nStream size : 6.79 MiB (6%)\nEncoded date : UTC 2014-01-09 17:02:49\nTagged date :\tUTC 2014-01-09 17:02:51","torrent":{"xt":"urn:btih:81fbd839a711b369efc4a6780747947d4e3e199a","amp;dn":"Tu+Hi+Junoon+-++Full+Video+Song+HD+720p+-+DHOOM+3+-+Aamir+Khan%2C+","amp;tr":["udp%3A%2F%2Ftracker.openbittorrent.com%3A80","udp%3A%2F%2Fopen.demonii.com%3A1337","udp%3A%2F%2Ftracker.coppersurfer.tk%3A6969","udp%3A%2F%2Fexodus.desync.com%3A6969"],"infoHash":"81fbd839a711b369efc4a6780747947d4e3e199a","infoHashBuffer":{"type":"Buffer","data":[129,251,216,57,167,17,179,105,239,196,166,120,7,71,148,125,78,62,25,154]},"announce":[],"urlList":[]}}